<svg width="181" height="77" viewBox="0 0 181 77" fill="none" xmlns="http://www.w3.org/2000/svg">
<path d="M112.739 0.3886C108.744 0.384721 104.793 0.517411 100.842 0.752097C98.9157 0.581021 96.942 0.522703 94.9909 0.521336C92.1801 0.532048 89.3676 0.69009 86.6007 0.90537C83.8338 1.13198 81.0661 1.41526 78.3444 1.74444C72.8774 2.42518 67.5018 3.2204 62.2631 4.22133C57.1642 5.18998 52.1561 6.32976 47.4934 7.71183C45.1622 8.3972 42.923 9.15171 40.7529 9.95242C38.5361 10.7752 36.4345 11.6674 34.4024 12.5832C33.398 13.0355 32.4167 13.4995 31.4352 13.9748C28.3331 15.0134 25.2771 16.0752 22.3592 17.2408C20.7018 17.9118 19.0902 18.6287 17.5481 19.3578C16.0061 20.0868 14.5334 20.8395 13.1068 21.6267C11.6567 22.4362 10.299 23.2809 9.03374 24.1721C7.7918 25.0523 6.71201 25.9684 5.72457 26.931C4.73698 27.905 3.84216 28.8914 2.99364 29.8898C2.14499 30.8994 1.41204 31.9445 0.586465 32.9658C0.374231 33.2239 0.695468 33.5453 1.18151 33.6873C1.48232 33.7816 1.85363 33.8089 2.17934 33.7676C2.48182 33.7259 2.83145 33.6282 2.94938 33.4823C3.70249 32.6869 4.43251 31.8797 5.18547 31.0956C5.98544 30.2667 6.8085 29.4494 7.65478 28.6324C8.4777 27.8264 9.39337 27.0329 10.3551 26.274C11.2931 25.5488 12.3238 24.8474 13.4239 24.1695C14.9686 23.2251 16.6518 22.3504 18.3813 21.4876C16.7176 22.6686 15.1926 23.8966 13.8298 25.1607C11.2687 27.5321 9.37904 30.0818 8.30112 32.7322C7.7737 34.0632 7.47825 35.4197 7.39169 36.7901C7.30512 38.1606 7.49739 39.5231 7.85237 40.8763C8.58528 43.6057 10.2016 46.2779 12.3536 48.8321C14.5058 51.3636 17.1471 53.7991 20.0915 56.1363C23.0361 58.4622 26.3072 60.6787 29.9983 62.7418C37.265 66.8098 46.4242 69.9944 56.4078 72.2483C66.7389 74.5745 77.9187 75.891 89.1555 76.3582C94.8434 76.5983 100.558 76.578 106.205 76.3415C111.876 76.1053 117.503 75.6532 122.993 74.9388C128.344 74.2453 133.536 73.2891 138.521 72.1264C143.367 70.9846 147.936 69.6014 152.207 68.0218C160.84 64.8297 167.745 60.5963 172.38 55.8134C177.18 50.8399 179.431 45.3363 179.963 39.8342C180.23 37.0265 179.986 34.2011 179.301 31.4043C178.615 28.6189 177.394 25.8722 175.662 23.1985C174.819 21.8846 173.836 20.5917 172.783 19.3205C171.73 18.0268 170.561 16.7542 169.183 15.5244C166.541 13.1569 163.06 11.0284 159.134 9.13249C157.125 8.16696 154.953 7.27876 152.71 6.44636C150.49 5.62559 148.13 4.90509 145.699 4.25173C140.698 2.92063 135.297 1.95866 129.777 1.34658C124.929 0.742802 119.869 0.465102 114.806 0.402731C114.109 0.394147 113.413 0.385564 112.739 0.3886ZM95.3327 1.05828C95.6578 1.06228 95.9831 1.05496 96.285 1.05868C95.9595 1.08867 95.6573 1.10762 95.3317 1.13761C84.1013 2.04206 73.2781 3.83563 62.7537 5.88225C57.5381 6.89479 52.4372 8.0221 47.4511 9.26417C45.0045 9.88011 42.5809 10.519 40.18 11.2035C39.5739 11.3774 38.9678 11.5513 38.3616 11.7365C39.7393 11.1527 41.1397 10.6033 42.6097 10.066C45.7362 8.93701 49.0007 7.92309 52.4262 7.03584C55.8283 6.15964 59.322 5.38658 62.9077 4.694C62.8845 4.69371 62.8845 4.69371 62.8611 4.70476C62.9077 4.694 62.9309 4.69428 62.9775 4.68352L63.0008 4.68381C63.0008 4.68381 63.0008 4.68381 62.9775 4.68352C65.1197 4.26786 67.3078 3.88676 69.4955 3.53967C71.7531 3.1821 74.0565 2.87043 76.3598 2.5701C80.8966 1.97991 85.5019 1.48124 90.174 1.22142C90.1508 1.22114 90.1508 1.22114 90.1275 1.22085C91.8709 1.11765 93.5906 1.05949 95.3327 1.05828ZM124.555 2.81245C127.201 3.0264 129.799 3.3191 132.373 3.67952C134.946 4.05126 137.473 4.50177 139.952 5.03104C144.214 5.97899 148.241 7.18474 151.94 8.61315C155.8 10.1456 159.309 11.8777 162.328 13.8078C163.849 14.8126 165.23 15.8724 166.447 16.9642C167.734 18.1135 168.834 19.3059 169.842 20.5085C171.375 22.3409 172.723 24.2051 173.814 26.1001C174.974 28.132 175.808 30.1938 176.363 32.2749C177.448 36.5728 177.441 40.9366 176.227 45.2062C175.234 48.5263 173.475 51.7691 170.789 54.853C170.836 54.8083 170.86 54.7632 170.907 54.7298C168.575 57.3647 165.571 59.8327 161.92 62.0887C160.188 63.1328 158.341 64.1189 156.378 65.0581C154.369 66.0082 152.197 66.8882 149.934 67.7104C150.004 67.6886 150.051 67.6665 150.121 67.6447C147.344 68.642 144.453 69.5585 141.423 70.3826C138.37 71.2177 135.202 71.9268 131.965 72.567C132.035 72.5565 132.105 72.5347 132.175 72.5243C128.519 73.2273 124.749 73.8156 120.934 74.2787C116.956 74.7624 112.91 75.0866 108.843 75.3085C104.473 75.5381 100.105 75.6316 95.7153 75.5889C91.2096 75.5447 86.7058 75.3419 82.2501 75.0036C82.2734 75.0039 82.2734 75.0039 82.2966 75.0042C74.0121 74.358 65.8729 73.2263 58.1817 71.556C52.1124 70.2118 46.3492 68.5426 41.1245 66.5173C41.1245 66.5173 41.1245 66.5173 41.1013 66.517C41.0319 66.4935 40.9857 66.4703 40.9164 66.4467C40.9627 66.4587 40.9856 66.4816 41.0319 66.4935C38.3736 65.4406 35.8556 64.3215 33.5011 63.1137C31.1466 61.9172 28.9793 60.6097 26.9283 59.2809C24.3246 57.5713 21.9544 55.7625 19.7703 53.9221C17.6096 52.0819 15.6585 50.1876 13.9868 48.2401C14.0098 48.2631 14.0329 48.2747 14.0326 48.2974C11.8806 45.7432 10.3106 43.0829 9.55448 40.3532C9.5542 40.3759 9.55406 40.3872 9.577 40.4102C9.57728 40.3875 9.55448 40.3532 9.55475 40.3306C9.55489 40.3192 9.55503 40.3079 9.55517 40.2966C9.55503 40.3079 9.55503 40.3079 9.55489 40.3192C9.28932 39.2505 9.1631 38.1835 9.17636 37.1068C9.18962 36.0302 9.36546 34.9556 9.65742 33.8824C9.65728 33.8937 9.657 33.9163 9.63364 33.9274C9.63392 33.9047 9.65756 33.871 9.65784 33.8484C9.65798 33.837 9.65812 33.8257 9.65812 33.8257C9.65798 33.837 9.65798 33.837 9.65784 33.8484C10.3355 31.6351 11.6163 29.4859 13.4069 27.4337C13.4068 27.4451 13.3834 27.4561 13.3833 27.4675C13.4069 27.4337 13.4304 27.4114 13.4541 27.3776C13.4541 27.3776 13.4541 27.3776 13.4542 27.3663C16.092 24.4291 19.6559 21.73 23.7052 19.2296C24.0329 19.0296 24.3605 18.8296 24.6882 18.6296C25.6453 18.2447 26.6488 17.8603 27.6521 17.4986C30.3354 16.5229 33.1108 15.605 35.8862 14.6984C38.8246 13.7485 41.8322 12.8447 44.9086 12.0099C51.1545 10.3299 57.6764 8.86874 64.3355 7.57927C64.1726 7.61127 64.0328 7.64355 63.8699 7.66422C70.0634 6.47102 76.3485 5.36964 82.7472 4.48501C89.0761 3.61086 95.5644 2.98804 102.119 2.6154C104.118 2.51534 106.117 2.43795 108.115 2.39456C108.555 2.47933 108.996 2.56409 109.413 2.64857C109.366 2.63667 109.32 2.62476 109.274 2.62419C109.366 2.648 109.459 2.66048 109.528 2.684C109.783 2.75515 110.132 2.72544 110.273 2.6025C110.367 2.52431 110.368 2.43364 110.299 2.36479C115.084 2.32173 119.844 2.45971 124.555 2.81245ZM124.068 2.77244C124.161 2.78492 124.254 2.78607 124.37 2.79883C124.254 2.7974 124.161 2.78492 124.068 2.77244ZM102.584 2.60979C102.538 2.60922 102.468 2.61969 102.421 2.61912C102.468 2.60836 102.514 2.60893 102.584 2.60979ZM151.986 8.64772C152.078 8.68286 152.148 8.71772 152.24 8.75286C152.171 8.70667 152.078 8.68286 151.986 8.64772ZM169.681 20.3365C169.704 20.3594 169.727 20.3824 169.75 20.4053C169.727 20.3824 169.704 20.3594 169.681 20.3365ZM23.822 19.1743C23.7987 19.1854 23.7985 19.1967 23.7751 19.2078C23.7754 19.1851 23.7987 19.1854 23.822 19.1743ZM13.6346 24.0361C13.5877 24.0696 13.541 24.0916 13.4941 24.1251C13.541 24.0916 13.5877 24.0696 13.6346 24.0361ZM13.4473 24.1585C13.4238 24.1809 13.4004 24.1919 13.3537 24.214C13.3772 24.1916 13.4238 24.1809 13.4473 24.1585ZM82.0645 74.99C82.1109 74.9906 82.1572 75.0025 82.2037 75.003C82.1572 75.0025 82.1109 74.9906 82.0645 74.99ZM41.1245 66.5173C41.1015 66.5057 41.0784 66.4941 41.0551 66.4938C41.0784 66.4941 41.1015 66.5057 41.1245 66.5173ZM9.55475 40.3306C9.55462 40.3419 9.55448 40.3532 9.55448 40.3532C9.55462 40.3419 9.55489 40.3192 9.53181 40.3076C9.55489 40.3192 9.55475 40.3306 9.55475 40.3306ZM9.65784 33.8484C9.6577 33.8597 9.65756 33.871 9.65728 33.8937C9.65756 33.871 9.65784 33.8484 9.65784 33.8484C9.65798 33.837 9.65798 33.837 9.65784 33.8484ZM13.4542 27.3663C13.4307 27.3887 13.4306 27.4 13.4071 27.4224C13.4306 27.4 13.4307 27.3887 13.4542 27.3663ZM62.9777 4.67219C62.9544 4.6719 62.9311 4.68295 62.9079 4.68266C62.9311 4.68295 62.9543 4.68323 62.9777 4.67219Z" fill="#3272F6"/>
</svg>
