<svg width="24" height="23" viewBox="0 0 24 23" fill="none" xmlns="http://www.w3.org/2000/svg">
<path d="M5.28125 9.95836C7.08125 13.5052 9.975 16.4065 13.5188 18.2113L16.2688 15.4478C16.6125 15.1031 17.1063 15.0028 17.5375 15.1407C18.9375 15.6044 20.4438 15.8551 22 15.8551C22.6938 15.8551 23.25 16.4128 23.25 17.1084V21.4949C23.25 22.1905 22.6938 22.7482 22 22.7482C10.2625 22.7482 0.75 13.2106 0.75 1.44225C0.75 0.746679 1.3125 0.188965 2 0.188965H6.375C7.06875 0.188965 7.625 0.746679 7.625 1.44225C7.625 3.0026 7.875 4.51281 8.3375 5.9165C8.475 6.34888 8.375 6.84393 8.03125 7.18859L5.28125 9.95836Z" fill="#3272F6"/>
</svg>
