<svg width="123" height="71" viewBox="0 0 123 71" fill="none" xmlns="http://www.w3.org/2000/svg">
<g clip-path="url(#clip0_314_1184)">
<path d="M25.0313 70.9896C19.6206 70.7173 14.6462 70.7584 9.74875 70.1573C2.32049 69.2428 -1.13439 64.0227 0.333808 56.6396C2.24349 47.0421 8.64504 41.894 17.5723 39.3251C27.5827 36.4427 39.1127 40.07 45.2319 48.0851C48.3069 52.1132 49.7238 56.7064 48.8613 61.8032C48.0348 66.6944 45.3654 69.5048 40.4269 70.0443C35.1701 70.6146 29.8723 70.7122 25.0313 70.9896Z" fill="#93B5FB"/>
<path d="M98.631 71C93.3999 70.7174 88.2612 70.6763 83.1841 70.106C77.0598 69.4227 73.9283 65.7337 73.9694 59.5426C74.0207 51.8409 77.9068 46.3075 84.2416 42.2999C95.5611 35.1326 111.947 38.015 119.453 48.6144C122.256 52.5654 123.667 57.0199 122.687 61.9368C121.701 66.8846 119.129 69.5152 114.114 70.0598C108.949 70.6198 103.734 70.7071 98.631 71Z" fill="#93B5FB"/>
<path d="M70.1092 61.6798C64.4006 61.6798 58.4303 61.6798 52.9528 61.6798C51.7362 57.3332 51.2125 52.8838 49.2515 49.1948C47.2751 45.4802 43.8664 42.5311 40.8633 38.9808C45.7248 32.4968 52.8758 29.3781 61.2794 29.3165C69.8833 29.2497 77.2191 32.3273 82.2295 38.9859C79.2212 42.5259 75.8125 45.4699 73.831 49.1846C71.8597 52.8684 71.3361 57.3229 70.1092 61.6798Z" fill="#93B5FB"/>
<path d="M74.8935 13.4868C74.8729 20.911 68.9591 26.8247 61.5411 26.8452C54.0564 26.8709 48.1117 20.8237 48.1733 13.2505C48.2298 5.89308 54.3336 -0.102799 61.654 0.00509583C69.072 0.107853 74.914 6.05749 74.8935 13.4868Z" fill="#93B5FB"/>
<path d="M85.0991 22.6526C85.058 15.1822 90.8641 9.27878 98.318 9.21713C105.803 9.15034 111.711 14.915 111.819 22.3803C111.927 29.861 105.864 36.0778 98.472 36.0778C91.1875 36.0727 85.1402 30.0049 85.0991 22.6526Z" fill="#93B5FB"/>
<path d="M24.6103 9.2173C32.0591 9.20702 37.9217 15.0385 37.9781 22.5141C38.0346 29.8406 32.0283 35.9958 24.7387 36.0831C17.372 36.1653 11.1912 29.9537 11.2477 22.5141C11.3042 15.0282 17.1308 9.22757 24.6103 9.2173Z" fill="#93B5FB"/>
</g>
<defs>
<clipPath id="clip0_314_1184">
<rect width="123" height="71" fill="white"/>
</clipPath>
</defs>
</svg>
