<svg width="100" height="94" viewBox="0 0 100 94" fill="none" xmlns="http://www.w3.org/2000/svg">
<g clip-path="url(#clip0_314_1211)">
<path d="M91.734 -4.68469e-05C95.2796 -0.0209813 97.8259 1.62447 99.1472 4.74789C100.489 7.91737 99.8747 10.8063 97.7088 13.3101C95.5096 15.8515 91.9849 16.668 88.9452 15.3449C87.6741 14.7923 86.7961 14.9597 85.6839 15.6422C81.7119 18.0873 77.6311 20.3608 73.7008 22.8646C72.8395 23.4131 72.0409 24.5854 71.8695 25.5861C71.2381 29.2287 68.8298 32.1721 65.7274 32.6452C61.4794 33.2941 58.2432 31.5566 56.4579 27.8596C56.0105 26.9343 55.2579 25.9461 54.3798 25.4772C50.759 23.5429 47.0712 21.7258 43.3291 20.0384C42.5556 19.6909 41.3096 19.7872 40.5278 20.1724C38.1863 21.3322 35.9202 21.9895 33.3153 21.0056C32.638 20.7502 31.5049 20.947 30.9028 21.3824C26.3203 24.6733 21.8339 28.094 17.2849 31.4352C16.1602 32.26 15.6668 33.0932 16.0222 34.5963C16.8291 38.0002 14.5672 41.915 11.2766 43.1836C7.56377 44.6113 3.29902 43.2464 1.37988 40.0099C-0.392918 37.0247 -0.14205 33.2272 2.00287 30.6438C4.20214 27.9894 7.72265 27.1478 11.101 28.2531C11.8578 28.5002 13.041 28.3787 13.6724 27.9265C18.096 24.7696 22.3942 21.441 26.8011 18.2632C28.0806 17.3421 28.507 16.4126 28.3063 14.7923C27.7084 10.015 29.7321 6.99626 34.0888 5.71925C38.6337 4.38782 43.7765 7.86294 44.0065 12.6067C44.0859 14.2563 44.6671 15.0853 46.0928 15.772C49.2245 17.2835 52.2935 18.9331 55.354 20.5869C56.3659 21.1354 56.9303 20.8591 57.6369 20.0301C60.7519 16.3791 64.8076 15.8808 68.8089 18.4139C69.4235 18.8033 70.6026 18.9666 71.1838 18.64C75.1182 16.4084 78.9565 14.0051 82.8449 11.6856C83.769 11.1329 84.2331 10.5593 83.9906 9.33254C82.9996 4.35433 86.6372 0.0292614 91.734 -4.68469e-05Z" fill="#C285FF"/>
<path d="M99.9959 63.9256C99.9959 72.5799 100 81.23 99.9959 89.8843C99.9917 93.2799 99.3269 93.9582 95.9988 93.9749C93.1431 93.9875 90.2832 94.0084 87.4275 93.9791C84.3794 93.9498 83.6394 93.1962 83.6352 90.0853C83.6268 73.6183 83.6352 57.1512 83.6352 40.6841C83.6352 39.4281 83.6101 38.172 83.6352 36.9159C83.6853 34.3661 84.5174 33.4869 87.0093 33.4576C90.1452 33.4199 93.281 33.4282 96.4169 33.4534C99.1681 33.4743 99.9876 34.3075 99.9917 37.1337C100.008 46.0601 99.9959 54.9949 99.9959 63.9256Z" fill="#C285FF"/>
<path d="M44.0775 66.626C44.0775 74.6481 44.0859 82.666 44.0733 90.6881C44.0692 93.3132 43.5005 93.9203 40.8999 93.958C37.626 94.0041 34.3522 93.9371 31.0784 93.979C29.0882 94.0041 28.1349 93.1458 28.1349 91.1068C28.1558 74.7151 28.1391 58.3275 28.1642 41.9358C28.1683 39.6875 29.0756 38.8292 31.3962 38.7915C34.5278 38.7412 37.6637 38.7329 40.7995 38.7873C43.0908 38.8292 44.0692 39.8633 44.0733 42.1452C44.0859 50.3055 44.0775 58.4657 44.0775 66.626Z" fill="#C285FF"/>
<path d="M71.8737 72.1653C71.8737 78.2991 71.8946 84.4329 71.8654 90.5667C71.8528 93.4975 71.3804 93.9539 68.4243 93.979C65.2926 94.0083 62.161 94.0125 59.0293 93.9623C56.5583 93.9246 55.9436 93.2882 55.9395 90.8305C55.9269 78.3535 55.9227 65.8766 55.9311 53.3996C55.9311 50.8498 56.5499 50.2343 59.184 50.2008C62.3868 50.159 65.5895 50.1631 68.7881 50.2092C71.3135 50.2427 71.8319 50.7535 71.8445 53.3452C71.8779 59.6172 71.857 65.8933 71.857 72.1653C71.8612 72.1653 71.8654 72.1653 71.8737 72.1653Z" fill="#C285FF"/>
<path d="M16.3734 77.7423C16.3734 81.8497 16.3818 85.957 16.3692 90.0644C16.3609 93.2464 15.6375 93.9582 12.4139 93.9708C9.35332 93.9833 6.29273 94.0126 3.23633 93.9582C0.961796 93.9163 0.0419487 93.0455 0.0294053 90.7845C-0.0124059 82.013 -0.0124059 73.2373 0.0294053 64.4657C0.0377676 62.276 1.09977 61.3004 3.24469 61.2837C6.51433 61.2585 9.77979 61.2627 13.0494 61.2837C15.3156 61.2962 16.3358 62.2718 16.3567 64.5829C16.4069 68.9708 16.3734 73.3545 16.3734 77.7423Z" fill="#C285FF"/>
</g>
<defs>
<clipPath id="clip0_314_1211">
<rect width="100" height="94" fill="white"/>
</clipPath>
</defs>
</svg>
