<svg width="99" height="99" viewBox="0 0 99 99" fill="none" xmlns="http://www.w3.org/2000/svg">
<g clip-path="url(#clip0_314_1171)">
<path d="M49.5955 36.1184C60.7799 27.512 71.7731 19.051 82.7632 10.5899C82.7155 10.4604 82.6677 10.3277 82.6231 10.1983C81.1714 10.0056 79.7228 9.79715 78.2679 9.62029C75.6381 9.29498 72.9957 9.03601 70.3723 8.66017C67.5134 8.24959 65.8642 6.21564 66.224 3.67953C66.5837 1.13394 68.6913 -0.299922 71.598 0.0569657C79.1211 0.982347 86.6441 1.90141 94.164 2.85206C98.0322 3.34159 99.3439 4.83863 98.9205 8.63174C98.0449 16.4738 97.0548 24.3032 96.0711 32.1326C95.7718 34.5266 93.7788 36.0521 91.3656 35.8847C89.0574 35.7236 87.2586 33.9487 87.4433 31.561C87.7584 27.4741 88.3347 23.4063 88.7963 19.3321C88.8441 18.9215 88.8791 18.5109 88.9555 17.7592C88.2742 18.233 87.8126 18.5298 87.3796 18.8615C75.5554 27.951 63.7407 37.0469 51.9133 46.1302C48.182 48.9948 45.635 48.4673 43.2441 44.4153C41.665 41.737 40.0508 39.0809 38.4463 36.4184C38.3985 36.3395 38.2807 36.3047 38.0706 36.1658C34.5972 38.844 31.0856 41.5507 27.574 44.2542C21.0792 49.2569 14.5845 54.2533 8.09614 59.2624C6.6221 60.4025 5.00796 60.9331 3.19644 60.2889C-0.47435 58.9845 -1.14293 54.5565 1.99938 52.0615C5.81025 49.039 9.70391 46.1207 13.5625 43.1582C20.7768 37.6186 27.991 32.0789 35.2085 26.5424C35.7529 26.1224 36.2909 25.6929 36.8512 25.2981C39.4205 23.4789 42.1266 23.9242 43.8331 26.574C45.4026 29.0122 46.8194 31.542 48.3093 34.0308C48.6882 34.6561 49.0766 35.272 49.5955 36.1184Z" fill="#F8CE75"/>
<path d="M95.2178 72.044C95.2178 80.4072 95.1828 88.7735 95.2497 97.1367C95.2624 98.6021 94.8167 99.0316 93.3554 99.0001C89.2198 98.9116 85.0842 98.9306 80.9485 98.9969C79.6782 99.0159 79.1975 98.6969 79.2007 97.3388C79.2421 80.3471 79.2357 63.3555 79.2039 46.3638C79.2007 45.1384 79.5445 44.7278 80.8244 44.75C85.0651 44.8289 89.3089 44.8321 93.5496 44.75C94.9186 44.7247 95.2465 45.2111 95.2401 46.4775C95.1956 54.9986 95.2178 63.5197 95.2178 72.044Z" fill="#F8CE75"/>
<path d="M70.6015 98.9591C65.4854 98.9591 60.5602 98.978 55.6382 98.9149C55.3358 98.9117 54.8264 98.3085 54.7882 97.9484C54.6735 96.8557 54.7436 95.7439 54.7436 94.6385C54.7436 81.9043 54.7627 69.17 54.7181 56.4358C54.7118 55.0493 54.9983 54.5124 56.536 54.5534C60.7226 54.664 64.9155 54.5882 69.1084 54.5945C69.5732 54.5945 70.038 54.645 70.6079 54.6798C70.6016 69.4259 70.6015 84.0772 70.6015 98.9591Z" fill="#F8CE75"/>
<path d="M29.6115 80.2524C29.6115 74.6212 29.6497 68.9899 29.5829 63.3587C29.567 61.9785 29.863 61.4132 31.4071 61.4542C35.6478 61.5616 39.8948 61.5237 44.1387 61.4763C45.2466 61.4637 45.6032 61.8206 45.6 62.9197C45.5682 74.4443 45.5618 85.9721 45.6 97.4967C45.6032 98.719 45.1638 99.0032 44.0241 98.9874C39.7261 98.9337 35.4281 98.9306 31.1333 98.9906C29.949 99.0064 29.5797 98.6432 29.5892 97.4619C29.6434 91.7265 29.6115 85.9879 29.6115 80.2524C29.6147 80.2524 29.6147 80.2524 29.6115 80.2524Z" fill="#F8CE75"/>
<path d="M5.57136 83.5971C5.57136 79.0713 5.60639 74.5454 5.5459 70.0196C5.52998 68.7879 5.90247 68.3931 7.17276 68.4152C11.4676 68.491 15.7655 68.4878 20.0635 68.4183C21.302 68.3962 21.5726 68.8447 21.5662 69.9722C21.528 79.1281 21.5248 88.2872 21.5662 97.4431C21.5726 98.6053 21.2319 99.0096 20.0349 98.9938C15.7401 98.937 11.4389 98.9307 7.14411 98.997C5.84516 99.0159 5.53634 98.5296 5.55226 97.3357C5.60639 92.753 5.57455 88.1735 5.57136 83.5971Z" fill="#F8CE75"/>
</g>
<defs>
<clipPath id="clip0_314_1171">
<rect width="99" height="99" fill="white"/>
</clipPath>
</defs>
</svg>
