<svg width="123" height="68" viewBox="0 0 123 68" fill="none" xmlns="http://www.w3.org/2000/svg">
<g clip-path="url(#clip0_314_1199)">
<path d="M45.8681 35.0566C45.4993 34.5669 45.0945 33.8686 44.5412 33.3335C41.015 29.9507 37.4033 26.6587 33.9535 23.1988C33.2339 22.4778 32.5098 20.9315 32.8156 20.2105C33.1574 19.4079 34.6327 18.7776 35.6852 18.6597C40.3673 18.1201 45.0675 17.7483 49.7676 17.3991C51.3418 17.2812 52.3178 16.7235 52.9925 15.1636C54.9086 10.7424 56.946 6.36658 59.1005 2.05877C59.5637 1.13372 60.7376 -0.0225886 61.5517 8.41343e-05C62.3748 0.0227568 63.4813 1.23348 63.9086 2.1812C65.964 6.70214 67.7766 11.341 69.8321 15.8619C70.1739 16.6146 71.2309 17.3764 72.0585 17.5125C77.0825 18.3196 82.1424 18.8865 87.1664 19.6936C88.0345 19.8342 89.2669 20.5824 89.4648 21.2943C89.6717 22.047 89.0825 23.353 88.4258 23.9651C84.7421 27.3978 80.9685 30.7352 77.1454 34.0046C76.0705 34.9251 75.8411 35.8275 76.1154 37.1561C77.051 41.6589 77.9685 46.1663 78.7062 50.7053C78.9041 51.9251 78.4318 53.2537 78.2654 54.528C76.961 54.3103 75.4723 54.4237 74.3793 53.8206C70.2459 51.5397 66.2204 49.0593 62.2039 46.5653C61.1065 45.8851 60.2654 45.8579 59.1364 46.5109C54.985 48.9187 50.8111 51.2858 46.5607 53.5077C45.5487 54.0382 44.2174 53.9385 43.03 54.1289C42.8411 52.8774 42.3014 51.5578 42.5217 50.3879C43.3718 45.8715 44.4648 41.4005 45.4678 36.9158C45.5802 36.3989 45.6882 35.8819 45.8681 35.0566Z" fill="#71EFC0"/>
<path d="M31.3763 65.6058C31.3269 67.7778 29.6627 68.6303 27.6882 67.5012C25.2774 66.1227 22.8891 64.7034 20.5817 63.1617C19.3089 62.3137 18.3059 62.155 16.9341 63.0302C14.6582 64.4767 12.2789 65.7872 9.8411 66.9253C8.96853 67.3334 7.55174 67.4604 6.8276 67.007C6.25189 66.6442 6.05849 65.1478 6.20691 64.2364C6.62521 61.6335 7.2324 59.0579 7.90257 56.5095C8.30736 54.9587 8.09597 53.8069 6.81411 52.7277C4.86209 51.0816 2.95504 49.3585 1.2279 47.4812C0.512762 46.7058 -0.139412 45.3681 0.0225071 44.4385C0.134951 43.7901 1.6462 43.1145 2.61321 42.9558C5.27138 42.525 7.96554 42.2665 10.6507 42.1259C12.1619 42.0488 12.9086 41.3596 13.4663 40.0355C14.4918 37.605 15.5353 35.1699 16.8081 32.8709C17.3164 31.9504 18.4048 30.9075 19.3179 30.8122C19.9925 30.7442 21.072 31.9867 21.5218 32.8755C22.7137 35.2198 23.7616 37.6549 24.6702 40.1307C25.2594 41.7314 26.2669 42.2801 27.8456 42.4161C30.6027 42.661 33.3598 42.9784 36.081 43.4636C36.9086 43.6087 38.123 44.298 38.2579 44.9328C38.4288 45.74 37.9161 46.987 37.2819 47.6218C35.2039 49.685 32.973 51.5986 30.7332 53.485C29.6987 54.3556 29.3433 55.1945 29.6762 56.6047C30.3868 59.6066 30.8411 62.6719 31.3763 65.6058Z" fill="#71EFC0"/>
<path d="M91.6416 65.2249C92.1408 62.5586 92.5816 59.6475 93.2698 56.7952C93.6611 55.1764 93.3192 54.1017 92.0509 53.0678C90.0179 51.4082 88.0119 49.6896 86.1678 47.8259C85.4752 47.1276 84.832 45.8715 84.9759 45.0009C85.0839 44.3389 86.4107 43.5771 87.2968 43.4138C89.9369 42.9241 92.6221 42.652 95.3028 42.3981C96.7915 42.2575 97.745 41.7179 98.2893 40.1943C99.2293 37.5733 100.291 34.9841 101.51 32.4901C101.901 31.692 102.922 30.8123 103.727 30.7307C104.393 30.6672 105.445 31.5741 105.841 32.3178C107.114 34.703 108.238 37.1788 109.268 39.6819C109.911 41.2463 110.771 42.0489 112.565 42.1079C115.25 42.194 117.944 42.4933 120.598 42.9241C121.48 43.0692 122.735 43.7448 122.95 44.4477C123.18 45.1959 122.618 46.4928 121.992 47.1548C120.139 49.1183 118.147 50.9593 116.091 52.7142C114.823 53.7934 114.571 54.9361 114.98 56.4914C115.669 59.1124 116.316 61.756 116.744 64.4269C116.883 65.302 116.55 66.6125 115.934 67.1431C115.426 67.5829 114.054 67.4469 113.298 67.075C110.685 65.7827 108.216 64.182 105.589 62.9169C104.82 62.545 103.552 62.5768 102.792 62.9668C100.201 64.3044 97.754 65.9323 95.2083 67.3653C93.2383 68.4671 91.6551 67.5784 91.6416 65.2249Z" fill="#71EFC0"/>
</g>
<defs>
<clipPath id="clip0_314_1199">
<rect width="123" height="68" fill="white"/>
</clipPath>
</defs>
</svg>
