<svg width="13" height="13" viewBox="0 0 13 13" fill="none" xmlns="http://www.w3.org/2000/svg">
<path d="M12.4453 5.00878C12.4024 4.87089 12.2881 4.77039 12.1506 4.74957L8.28694 4.16394L6.55902 0.512095C6.49753 0.382095 6.37059 0.299805 6.23162 0.299805C6.09263 0.299805 5.9657 0.382095 5.90419 0.512095L4.1762 4.16394L0.312622 4.74957C0.175114 4.77039 0.0608276 4.87089 0.0178882 5.00876C-0.0250756 5.14666 0.010756 5.29801 0.110291 5.39919L2.90593 8.24176L2.24606 12.2556C2.22255 12.3985 2.27888 12.5428 2.39131 12.6281C2.45492 12.6763 2.53026 12.7008 2.60596 12.7008C2.66409 12.7008 2.72241 12.6864 2.77582 12.6571L6.23159 10.762L9.68722 12.657C9.81027 12.7245 9.95932 12.7133 10.0718 12.6281C10.1842 12.5428 10.2405 12.3984 10.217 12.2555L9.55696 8.24176L12.3529 5.39916C12.4524 5.29801 12.4883 5.14666 12.4453 5.00878Z" fill="#FBD800"/>
</svg>
